<?xml version="1.0" encoding="UTF-8"?>
<svg id="Layer_1" xmlns="http://www.w3.org/2000/svg" version="1.1" viewBox="0 0 24 24">
  <!-- Generator: Adobe Illustrator 29.1.0, SVG Export Plug-In . SVG Version: 2.1.0 Build 142)  -->
  <path d="M23,12c0,.55-.45,1-1,1h-6c-.35,0-.67-.18-.85-.47l-1.42-2.28-2.29,6.1c-.13.36-.46.61-.84.65h-.1c-.35,0-.67-.18-.85-.47l-2.2-3.53H2c-.55,0-1-.45-1-1s.45-1,1-1h6c.35,0,.67.18.85.47l1.42,2.28,2.29-6.1c.13-.36.46-.61.84-.65.38-.04.75.14.95.47l2.2,3.53h5.45c.55,0,1,.45,1,1Z"/>
  <path d="M22.48,15.3c-1.39,4.47-5.55,7.7-10.48,7.7S2.91,19.77,1.52,15.3h2.12c1.3,3.34,4.55,5.7,8.36,5.7s7.06-2.36,8.36-5.7h2.12Z"/>
  <path d="M12,1C5.92,1,1,5.93,1,12c0,.34.02.67.05,1h2.01c-.04-.33-.06-.66-.06-1s.02-.67.06-1C3.55,6.5,7.37,3,12,3s8.45,3.5,8.94,8c.04.33.06.66.06,1s-.02.67-.06,1h2.01c.03-.33.05-.66.05-1C23,5.93,18.08,1,12,1Z"/>
</svg>