<?xml version="1.0" encoding="UTF-8"?>
<svg id="Layer_1" xmlns="http://www.w3.org/2000/svg" xmlns:xlink="http://www.w3.org/1999/xlink" version="1.1" viewBox="0 0 101.497 24">
  <!-- Generator: Adobe Illustrator 29.1.0, SVG Export Plug-In . SVG Version: 2.1.0 Build 142)  -->
  <defs>
    <style>
      .st0 {
        fill: url(#linear-gradient2);
      }

      .st1 {
        fill: url(#linear-gradient1);
      }

      .st2 {
        fill: url(#linear-gradient);
      }

      .st3 {
        fill: #fff;
      }
    </style>
    <linearGradient id="linear-gradient" x1="1" y1="11.997" x2="23" y2="11.997" gradientUnits="userSpaceOnUse">
      <stop offset="0" stop-color="#3b82f6"/>
      <stop offset="1" stop-color="#a855f7"/>
    </linearGradient>
    <linearGradient id="linear-gradient1" x1="1.518" y1="19.148" x2="22.478" y2="19.148" xlink:href="#linear-gradient"/>
    <linearGradient id="linear-gradient2" y1="6.999" y2="6.999" xlink:href="#linear-gradient"/>
  </defs>
  <path class="st2" d="M23,12c0,.55-.45,1-1,1h-6c-.35,0-.67-.18-.85-.47l-1.42-2.28-2.29,6.101c-.13.36-.46.61-.84.65h-.1c-.35,0-.67-.18-.85-.47l-2.2-3.53H2c-.55,0-1-.45-1-1s.45-1,1-1h6c.35,0,.67.18.85.47l1.42,2.28,2.29-6.101c.13-.36.46-.61.84-.65.38-.04.75.14.95.47l2.2,3.53h5.45c.55,0,1,.45,1,1Z"/>
  <path class="st1" d="M22.478,15.298c-1.39,4.47-5.55,7.701-10.48,7.701S2.908,19.768,1.518,15.298h2.12c1.3,3.34,4.55,5.701,8.36,5.701s7.06-2.36,8.36-5.701h2.12Z"/>
  <path class="st0" d="M12,.999C5.92.999,1,5.929,1,12c0,.34.02.67.05,1h2.01c-.04-.33-.06-.66-.06-1s.02-.67.06-1C3.55,6.499,7.37,2.999,12,2.999s8.45,3.5,8.94,8.001c.04.33.06.66.06,1s-.02.67-.06,1h2.01c.03-.33.05-.66.05-1C23,5.929,18.08.999,12,.999Z"/>
  <g>
    <path class="st3" d="M31.059,16.452h-2.037V6.4h2.029v5.828l.008.936v3.288ZM33.087,13.432h-2.689v-1.683h2.564c.565,0,.977-.132,1.23-.397.254-.265.382-.649.382-1.152v-.574c0-.514-.126-.9-.378-1.16-.252-.259-.66-.389-1.227-.389h-2.572v-1.675h2.689c1.222,0,2.117.275,2.687.826.568.551.854,1.332.854,2.344v.692c0,1.012-.285,1.793-.854,2.344-.569.55-1.465.826-2.687.826Z"/>
    <path class="st3" d="M41.388,16.664c-1.195,0-2.102-.307-2.718-.92-.616-.613-.924-1.486-.924-2.619v-1.046c0-1.138.308-2.014.924-2.63s1.522-.924,2.718-.924,2.092.308,2.705.924.92,1.493.92,2.63v1.046c0,1.132-.305,2.005-.916,2.619-.61.614-1.514.92-2.709.92ZM41.388,15.052c.524,0,.924-.157,1.199-.472.275-.315.413-.766.413-1.353v-1.25c0-.598-.138-1.055-.413-1.373-.275-.317-.675-.476-1.199-.476-.53,0-.933.159-1.207.476-.275.317-.413.775-.413,1.373v1.25c0,.587.138,1.038.413,1.353.274.314.677.472,1.207.472Z"/>
    <path class="st3" d="M48.438,16.452h-2.006V6.054h2.006v10.397ZM53.746,16.452h-2.359l-2.533-3.397h-.684v-1.313h.692l2.438-3.004h2.328l-3.13,3.799v-.409l3.248,4.326Z"/>
    <path class="st3" d="M57.964,16.641c-1.321,0-2.305-.304-2.949-.913-.646-.608-.968-1.489-.968-2.643v-1.007c0-1.143.302-2.021.904-2.634.604-.614,1.479-.92,2.627-.92.776,0,1.424.136,1.942.409.52.272.908.659,1.168,1.16.26.501.39,1.1.39,1.797v.275c0,.188-.01.381-.027.578-.019.196-.044.381-.075.554h-1.824c.016-.288.024-.562.027-.822.003-.26.004-.494.004-.704,0-.362-.058-.669-.173-.924s-.291-.447-.527-.578c-.235-.131-.537-.197-.904-.197-.54,0-.938.149-1.195.448s-.386.724-.386,1.274v.715l.008.228v.606c0,.241.038.464.114.668s.203.381.382.531c.178.149.415.266.712.35.296.084.667.126,1.112.126.482,0,.942-.054,1.381-.162.438-.107.853-.253,1.246-.437l-.173,1.589c-.352.194-.765.347-1.239.46s-1,.169-1.576.169ZM60.566,13.298h-5.45v-1.337h5.45v1.337ZM56.744,7.887l1.424-2.218h2.14v.024l-1.864,2.218h-1.699v-.024Z"/>
    <path class="st3" d="M64.636,16.452h-2.037V6.4h2.029v5.828l.008.936v3.288ZM66.664,13.432h-2.689v-1.683h2.564c.565,0,.977-.132,1.23-.397.254-.265.382-.649.382-1.152v-.574c0-.514-.126-.9-.378-1.16-.252-.259-.66-.389-1.227-.389h-2.572v-1.675h2.689c1.222,0,2.117.275,2.687.826.568.551.854,1.332.854,2.344v.692c0,1.012-.285,1.793-.854,2.344-.569.55-1.465.826-2.687.826Z"/>
    <path class="st3" d="M71.48,8.736h2.014v4.64c0,.32.043.599.13.838.087.238.23.422.433.55s.473.193.814.193c.309,0,.576-.055.802-.166.226-.11.411-.258.559-.444.146-.186.254-.395.322-.625l.314,1.093h-.377c-.084.335-.225.641-.421.916-.197.275-.464.494-.803.657-.338.163-.762.244-1.27.244-.588,0-1.066-.113-1.436-.338-.37-.226-.643-.559-.818-.999s-.264-.983-.264-1.628v-4.931ZM76.507,8.736h2.013v7.715h-2.005l.07-1.872-.078-.166v-5.678Z"/>
    <path class="st3" d="M82.221,16.452h-2.021V6.054h2.021v10.397Z"/>
    <path class="st3" d="M86.658,16.641c-.619,0-1.168-.059-1.647-.177-.48-.118-.888-.25-1.224-.397l-.181-1.746c.398.184.838.343,1.317.48.479.136,1.008.204,1.585.204.503,0,.867-.064,1.093-.192s.339-.321.339-.578v-.047c0-.173-.052-.314-.153-.425-.103-.11-.282-.211-.539-.303-.257-.091-.619-.19-1.085-.295-.646-.152-1.155-.329-1.53-.531-.375-.202-.644-.451-.806-.747-.163-.296-.244-.651-.244-1.066v-.071c0-.729.26-1.278.778-1.647.52-.37,1.287-.555,2.305-.555.603,0,1.137.059,1.601.177.464.118.851.258,1.16.421l.181,1.604c-.367-.173-.778-.318-1.234-.437-.457-.118-.947-.177-1.471-.177-.341,0-.61.027-.807.083s-.337.132-.421.232-.126.22-.126.362v.04c0,.157.046.293.138.409.092.116.261.219.508.311.246.092.592.19,1.038.295.65.136,1.172.296,1.564.479.394.184.68.418.857.704.179.286.268.659.268,1.121v.094c0,.797-.27,1.392-.81,1.786-.54.393-1.358.59-2.454.59Z"/>
    <path class="st3" d="M94.893,16.641c-1.321,0-2.305-.304-2.949-.913-.646-.608-.968-1.489-.968-2.643v-1.007c0-1.143.302-2.021.904-2.634.604-.614,1.479-.92,2.627-.92.776,0,1.424.136,1.942.409.52.272.908.659,1.168,1.16.26.501.39,1.1.39,1.797v.275c0,.188-.01.381-.027.578-.019.196-.044.381-.075.554h-1.824c.016-.288.024-.562.027-.822.003-.26.004-.494.004-.704,0-.362-.058-.669-.173-.924s-.291-.447-.527-.578c-.235-.131-.537-.197-.904-.197-.54,0-.938.149-1.195.448s-.386.724-.386,1.274v.715l.008.228v.606c0,.241.038.464.114.668s.203.381.382.531c.178.149.415.266.712.35.296.084.667.126,1.112.126.482,0,.942-.054,1.381-.162.438-.107.853-.253,1.246-.437l-.173,1.589c-.352.194-.765.347-1.239.46s-1,.169-1.576.169ZM97.495,13.298h-5.45v-1.337h5.45v1.337Z"/>
  </g>
</svg>